<?xml version="1.0" encoding="UTF-8"?>
<!DOCTYPE svg PUBLIC "-//W3C//DTD SVG 1.1//EN" "http://www.w3.org/Graphics/SVG/1.1/DTD/svg11.dtd">
<svg xmlns="http://www.w3.org/2000/svg" version="1.1" width="744px" height="744px" style="shape-rendering:geometricPrecision; text-rendering:geometricPrecision; image-rendering:optimizeQuality; fill-rule:evenodd; clip-rule:evenodd" xmlns:xlink="http://www.w3.org/1999/xlink">
<g><path style="opacity:0.997" fill="#010206" d="M 344.5,-0.5 C 362.5,-0.5 380.5,-0.5 398.5,-0.5C 525.293,12.5613 622.793,72.5613 691,179.5C 720.883,230.645 738.383,285.645 743.5,344.5C 743.5,362.5 743.5,380.5 743.5,398.5C 730.439,525.293 670.439,622.793 563.5,691C 512.355,720.883 457.355,738.383 398.5,743.5C 380.5,743.5 362.5,743.5 344.5,743.5C 217.707,730.439 120.207,670.439 52,563.5C 22.1173,512.355 4.61728,457.355 -0.5,398.5C -0.5,380.5 -0.5,362.5 -0.5,344.5C 12.5613,217.707 72.5613,120.207 179.5,52C 230.645,22.1173 285.645,4.61728 344.5,-0.5 Z"/></g>
<g><path style="opacity:1" fill="#fcfcfc" d="M 424.5,114.5 C 432.219,117.263 440.219,120.43 448.5,124C 449.38,125.356 449.714,126.856 449.5,128.5C 444.408,128.497 444.408,129.33 449.5,131C 450.519,134.048 452.519,135.381 455.5,135C 453.688,133.373 453.521,131.873 455,130.5C 457.474,131.974 459.64,133.807 461.5,136C 459.714,137.293 458.047,137.793 456.5,137.5C 457.853,138.524 458.52,139.857 458.5,141.5C 454.281,141.888 450.281,142.888 446.5,144.5C 446.5,145.5 446.5,146.5 446.5,147.5C 444.146,147.838 441.813,148.338 439.5,149C 438.167,150.667 438.167,152.333 439.5,154C 437.385,154.557 435.385,155.391 433.5,156.5C 431.608,153.956 429.775,153.956 428,156.5C 420.64,154.579 413.14,153.245 405.5,152.5C 404.149,153.366 403.316,154.366 403,155.5C 390.956,152.612 378.956,150.945 367,150.5C 361.366,152.188 355.366,152.521 349,151.5C 345.52,151.452 342.187,152.119 339,153.5C 334.876,152.428 330.71,152.262 326.5,153C 328.788,153.822 331.122,154.489 333.5,155C 309.687,159.737 286.687,167.071 264.5,177C 256.167,181.5 247.833,186 239.5,190.5C 238.914,190.291 238.414,189.957 238,189.5C 232.852,195.493 226.685,200.16 219.5,203.5C 216.508,209.321 211.842,213.154 205.5,215C 199.667,222.167 193.167,228.667 186,234.5C 176.163,247.518 166.829,260.851 158,274.5C 143.878,302.786 135.545,332.786 133,364.5C 132.148,368.927 130.982,373.261 129.5,377.5C 130.262,377.911 131.262,378.077 132.5,378C 130.925,380.936 131.425,383.436 134,385.5C 134.337,388.861 134.837,392.194 135.5,395.5C 135.257,398.313 134.924,401.146 134.5,404C 138.429,412.708 141.262,421.874 143,431.5C 153.445,462.537 170.611,489.371 194.5,512C 202.5,518.667 210.5,525.333 218.5,532C 238.529,546.433 260.363,556.933 284,563.5C 284.956,562.106 286.289,561.439 288,561.5C 294.189,562.361 300.356,562.861 306.5,563C 306.833,562.667 307.167,562.333 307.5,562C 303.898,561.365 303.232,560.032 305.5,558C 302.904,556.203 303.237,554.869 306.5,554C 302.488,552.197 302.822,551.197 307.5,551C 308.833,550.333 308.833,549.667 307.5,549C 309.886,548.716 310.552,547.716 309.5,546C 320.718,547.486 331.718,550.152 342.5,554C 345.877,555.039 346.543,556.539 344.5,558.5C 337.815,559.38 331.148,560.38 324.5,561.5C 323.034,562.135 321.7,562.969 320.5,564C 320.957,564.414 321.291,564.914 321.5,565.5C 320.5,566.167 319.5,566.833 318.5,567.5C 319.641,568.425 319.641,569.259 318.5,570C 314.843,569.892 311.177,569.892 307.5,570C 312.507,571.624 316.841,573.29 320.5,575C 321.167,575.667 321.833,576.333 322.5,577C 320.833,577.333 319.167,577.667 317.5,578C 325.747,581.138 334.08,583.971 342.5,586.5C 339.493,587.834 336.659,587.501 334,585.5C 332.208,586.037 330.375,586.37 328.5,586.5C 323.168,585.57 317.834,585.07 312.5,585C 315.006,586.299 317.673,587.299 320.5,588C 333.718,590.961 347.051,593.294 360.5,595C 364.272,595.611 364.272,596.611 360.5,598C 373.331,599.757 386.165,599.59 399,597.5C 401.355,597.688 403.688,598.021 406,598.5C 411.718,596.445 417.551,594.779 423.5,593.5C 424.854,595.184 426.521,595.684 428.5,595C 429.551,593.615 430.884,592.615 432.5,592C 488.638,578.005 534.138,547.839 569,501.5C 584.843,479.248 596.843,454.915 605,428.5C 605.667,427.833 606.333,427.167 607,426.5C 619.668,380.179 614.668,335.846 592,293.5C 580.888,274.305 567.388,256.805 551.5,241C 546.167,237 540.833,233 535.5,229C 534.743,227.488 533.743,226.154 532.5,225C 526.819,221.827 521.486,218.161 516.5,214C 496.39,203.615 475.723,194.281 454.5,186C 453.269,184.817 453.269,183.651 454.5,182.5C 456.167,181.5 457.833,180.5 459.5,179.5C 461.853,180.351 464.187,180.851 466.5,181C 461.203,178.911 456.537,175.911 452.5,172C 454.285,170.253 455.952,168.42 457.5,166.5C 459.957,168.225 462.623,168.725 465.5,168C 460.952,167.06 456.952,165.06 453.5,162C 454.167,161.333 454.833,160.667 455.5,160C 453.789,158.867 453.289,157.367 454,155.5C 454.667,154.167 455.333,154.167 456,155.5C 458.292,152.043 461.125,149.209 464.5,147C 475.133,144.83 485.466,145.163 495.5,148C 502.56,156.024 511.56,160.024 522.5,160C 542.827,168.329 561.827,178.996 579.5,192C 585.807,197.972 592.14,203.972 598.5,210C 599.833,210.667 601.167,211.333 602.5,212C 615.357,225.527 627.523,239.694 639,254.5C 642.747,261.663 646.747,268.663 651,275.5C 651.511,277.878 652.178,280.212 653,282.5C 659.402,293.584 664.235,304.917 667.5,316.5C 667.167,317.833 666.833,319.167 666.5,320.5C 668.986,333.101 671.653,345.601 674.5,358C 674.441,359.436 674.108,360.769 673.5,362C 675.762,371.762 675.928,381.595 674,391.5C 673.215,393.286 672.049,394.786 670.5,396C 671.376,397.586 672.376,399.086 673.5,400.5C 672.139,402.028 670.972,403.695 670,405.5C 669.66,409.558 668.993,413.558 668,417.5C 667.5,418 667,418.5 666.5,419C 667.687,420.019 668.687,421.186 669.5,422.5C 667.938,427.807 666.438,433.14 665,438.5C 660.342,445.143 657.676,452.476 657,460.5C 652.156,469.725 647.656,479.225 643.5,489C 639.299,495.228 635.466,501.728 632,508.5C 627.425,512.143 623.925,516.643 621.5,522C 614.941,532.285 606.941,541.951 597.5,551C 597.833,551.333 598.167,551.667 598.5,552C 590.195,561.003 581.195,569.336 571.5,577C 570.216,577.684 569.049,577.517 568,576.5C 566.887,577.76 566.72,578.927 567.5,580C 566.743,581.512 565.743,582.846 564.5,584C 555.923,589.444 547.589,595.111 539.5,601C 526.868,608.318 513.868,615.152 500.5,621.5C 500.167,621.833 499.833,622.167 499.5,622.5C 500.376,623.251 501.376,623.751 502.5,624C 490.434,631.701 477.767,638.368 464.5,644C 461.998,645.432 459.498,645.598 457,644.5C 455.833,646.333 454.333,647.833 452.5,649C 444.711,651.625 437.044,653.458 429.5,654.5C 429.5,655.5 429.5,656.5 429.5,657.5C 423.077,657.861 416.744,658.861 410.5,660.5C 408.625,660.37 406.792,660.037 405,659.5C 396.598,661.295 388.098,662.295 379.5,662.5C 364.501,661.356 349.501,660.189 334.5,659C 328.438,657.921 322.438,656.588 316.5,655C 313.6,654.057 311.267,652.39 309.5,650C 300.69,648.916 292.357,646.25 284.5,642C 283.5,640.333 282.5,638.667 281.5,637C 277.936,636.391 275.269,634.558 273.5,631.5C 270.921,630.294 268.421,628.961 266,627.5C 265.727,625.671 264.893,624.171 263.5,623C 264.833,622.667 266.167,622.333 267.5,622C 263.206,617.92 263.873,616.587 269.5,618C 266.048,614.94 262.048,612.94 257.5,612C 256.833,611 256.167,610 255.5,609C 254.256,608.544 253.423,609.044 253,610.5C 239.855,607.231 227.355,602.398 215.5,596C 213.833,595.667 212.167,595.333 210.5,595C 193.12,584.984 176.454,573.984 160.5,562C 158.47,560.104 156.803,557.937 155.5,555.5C 146.105,549.438 138.438,541.772 132.5,532.5C 128.578,527.686 124.411,523.019 120,518.5C 119.138,516.913 118.471,515.246 118,513.5C 116.667,512.833 115.333,512.167 114,511.5C 107.261,499.155 100.261,487.155 93,475.5C 89.7247,467.012 86.058,458.679 82,450.5C 77.3576,435.745 73.5243,420.912 70.5,406C 71.3567,405.311 72.0233,404.478 72.5,403.5C 70.2209,399.329 69.5542,394.996 70.5,390.5C 68.9125,384.024 68.2458,377.524 68.5,371C 70.3764,359.574 71.543,348.074 72,336.5C 72.414,336.043 72.914,335.709 73.5,335.5C 74.2826,327.777 75.4493,320.11 77,312.5C 78,310.5 79,308.5 80,306.5C 84.5895,287.53 90.9229,269.197 99,251.5C 115.772,219.468 137.272,190.968 163.5,166C 166.433,164.729 169.099,163.062 171.5,161C 174.167,157 177.5,153.667 181.5,151C 192.102,144.727 202.436,138.061 212.5,131C 228.738,123.047 245.071,115.38 261.5,108C 272.776,104.13 284.109,100.463 295.5,97C 317.402,92.348 339.569,90.1814 362,90.5C 368.008,91.1329 373.675,91.1329 379,90.5C 380.225,90.8623 381.391,91.3623 382.5,92C 381.328,92.4186 380.328,93.0853 379.5,94C 382.188,94.3924 384.855,94.8924 387.5,95.5C 388.167,95.1667 388.833,94.8333 389.5,94.5C 387.922,93.7022 386.256,93.2022 384.5,93C 384.833,92.6667 385.167,92.3333 385.5,92C 401.057,92.127 416.39,94.127 431.5,98C 435.926,98.871 439.259,101.204 441.5,105C 450.251,105.429 457.918,108.429 464.5,114C 464.043,114.414 463.709,114.914 463.5,115.5C 465.287,116.316 466.954,117.316 468.5,118.5C 467.726,119.711 466.893,119.711 466,118.5C 465.251,119.635 465.417,120.635 466.5,121.5C 468.343,121.755 470.343,121.922 472.5,122C 475.332,123.908 474.999,124.741 471.5,124.5C 471.5,125.833 471.5,127.167 471.5,128.5C 468.838,127.361 466.171,127.194 463.5,128C 451.023,122.092 438.357,116.758 425.5,112C 423.741,111.202 422.074,111.369 420.5,112.5C 421.949,113.172 423.282,113.839 424.5,114.5 Z"/></g>
<g><path style="opacity:1" fill="#545455" d="M 325.5,93.5 C 326.756,93.4614 327.756,93.9614 328.5,95C 326.17,96.3454 323.837,96.5121 321.5,95.5C 322.949,94.8281 324.282,94.1614 325.5,93.5 Z"/></g>
<g><path style="opacity:1" fill="#101011" d="M 342.5,96.5 C 349.452,97.2612 356.452,97.7612 363.5,98C 364.956,98.4226 365.456,99.2559 365,100.5C 363,99.8333 361,99.1667 359,98.5C 356.868,99.7797 354.702,99.7797 352.5,98.5C 349.497,99.0851 346.497,99.7518 343.5,100.5C 344.609,101.965 344.109,102.965 342,103.5C 336.584,102.361 331.084,102.194 325.5,103C 317.959,104.291 310.459,105.791 303,107.5C 296.409,106.907 289.909,106.907 283.5,107.5C 280.687,109.275 277.687,110.108 274.5,110C 279.406,107.586 284.573,105.752 290,104.5C 291,104.833 292,105.167 293,105.5C 304.958,102.352 317.125,100.518 329.5,100C 333.416,98.8976 337.416,98.231 341.5,98C 342.056,97.6174 342.389,97.1174 342.5,96.5 Z"/></g>
<g><path style="opacity:1" fill="#0a0a0b" d="M 436.5,104.5 C 441.662,106.138 441.329,106.638 435.5,106C 436.056,105.617 436.389,105.117 436.5,104.5 Z"/></g>
<g><path style="opacity:1" fill="#1e1e1e" d="M 446.5,109.5 C 446.56,108.957 446.893,108.624 447.5,108.5C 450.531,110.016 453.531,111.516 456.5,113C 452.932,112.726 449.599,111.56 446.5,109.5 Z"/></g>
<g><path style="opacity:1" fill="#232222" d="M 424.5,114.5 C 424.361,116.337 423.694,116.67 422.5,115.5C 422.957,114.702 423.624,114.369 424.5,114.5 Z"/></g>
<g><path style="opacity:1" fill="#ebebec" d="M 455.5,126.5 C 459.94,128.374 464.273,130.541 468.5,133C 468,133.5 467.5,134 467,134.5C 464.03,132.599 460.864,131.099 457.5,130C 456.027,129.29 455.36,128.124 455.5,126.5 Z"/></g>
<g><path style="opacity:1" fill="#0b0b0b" d="M 422.5,132.5 C 422.735,131.903 423.235,131.57 424,131.5C 425.5,132 427,132.5 428.5,133C 426.455,133.49 424.455,133.323 422.5,132.5 Z"/></g>
<g><path style="opacity:1" fill="#1a1a1a" d="M 427.5,135.5 C 430.534,136.119 433.534,136.953 436.5,138C 437.817,139.659 439.483,140.826 441.5,141.5C 442.521,142.002 442.688,142.668 442,143.5C 437.871,140.683 433.371,138.85 428.5,138C 427.748,137.329 427.414,136.496 427.5,135.5 Z"/></g>
<g><path style="opacity:1" fill="#151515" d="M 331.5,144.5 C 332.552,144.351 333.552,144.517 334.5,145C 334.167,145.333 333.833,145.667 333.5,146C 329.987,146.927 326.487,147.761 323,148.5C 322.833,148.167 322.667,147.833 322.5,147.5C 325.505,146.182 328.505,145.182 331.5,144.5 Z"/></g>
<g><path style="opacity:1" fill="#171717" d="M 335.5,145.5 C 337.337,145.639 337.67,146.306 336.5,147.5C 335.702,147.043 335.369,146.376 335.5,145.5 Z"/></g>
<g><path style="opacity:1" fill="#828283" d="M 413.5,146.5 C 413.56,145.957 413.893,145.624 414.5,145.5C 416.988,146.025 419.321,146.858 421.5,148C 418.739,148.145 416.073,147.645 413.5,146.5 Z"/></g>
<g><path style="opacity:1" fill="#090b0a" d="M 423.5,147.5 C 424.289,147.783 424.956,148.283 425.5,149C 424.184,149.528 423.517,149.028 423.5,147.5 Z"/></g>
<g><path style="opacity:1" fill="#282829" d="M 315.5,149.5 C 316.978,149.238 318.311,149.571 319.5,150.5C 318.471,150.296 317.471,150.796 316.5,152C 317.624,152.249 318.624,152.749 319.5,153.5C 317.955,154.452 316.288,154.785 314.5,154.5C 314.366,152.708 314.699,151.042 315.5,149.5 Z"/></g>
<g><path style="opacity:1" fill="#0e0e0e" d="M 309.5,151.5 C 312.971,151.899 313.304,153.399 310.5,156C 311.167,156.333 311.833,156.667 312.5,157C 304.179,158.214 296.179,160.381 288.5,163.5C 287.353,163.182 286.519,162.516 286,161.5C 277.866,164.415 269.7,167.415 261.5,170.5C 261.167,170.167 260.833,169.833 260.5,169.5C 267.956,166.525 275.289,163.358 282.5,160C 286.848,159.427 291.181,158.76 295.5,158C 299.877,154.975 304.544,152.808 309.5,151.5 Z"/></g>
<g><path style="opacity:1" fill="#272727" d="M 504.5,163.5 C 508.15,163.655 511.816,164.821 515.5,167C 511.673,166.559 508.007,165.392 504.5,163.5 Z"/></g>
<g><path style="opacity:1" fill="#2e2e2f" d="M 517.5,169.5 C 520.315,169.204 522.982,170.204 525.5,172.5C 525.333,172.833 525.167,173.167 525,173.5C 522.552,172.027 520.052,170.693 517.5,169.5 Z"/></g>
<g><path style="opacity:1" fill="#222222" d="M 252.5,172.5 C 253.675,172.281 254.675,172.614 255.5,173.5C 252.439,175.869 249.106,177.369 245.5,178C 248.02,176.303 250.353,174.47 252.5,172.5 Z"/></g>
<g><path style="opacity:1" fill="#181818" d="M 563.5,197.5 C 567.638,197.566 571.305,199.399 574.5,203C 570.733,201.617 567.066,199.784 563.5,197.5 Z"/></g>
<g><path style="opacity:1" fill="#fcfcfc" d="M 234.5,388.5 C 233.861,389.097 233.528,389.93 233.5,391C 234.244,392.855 235.244,394.521 236.5,396C 236.265,396.873 235.931,397.707 235.5,398.5C 236.557,398.906 237.891,398.906 239.5,398.5C 239.907,402.203 240.574,405.87 241.5,409.5C 240.74,411.437 239.74,413.27 238.5,415C 239.126,415.75 239.626,416.584 240,417.5C 240.635,413.898 241.968,413.232 244,415.5C 250.652,431.176 260.152,445.009 272.5,457C 278.833,462 285.167,467 291.5,472C 298.276,474.554 304.609,477.887 310.5,482C 320.676,484.422 330.676,487.422 340.5,491C 347.916,491.75 355.249,492.916 362.5,494.5C 365.028,493.492 367.195,494.158 369,496.5C 371.091,496.421 373.258,496.087 375.5,495.5C 381.115,496.289 386.782,496.789 392.5,497C 397.161,497.332 401.494,498.665 405.5,501C 402.245,502.209 399.411,504.042 397,506.5C 393.671,506.968 390.505,507.801 387.5,509C 388.308,509.308 388.975,509.808 389.5,510.5C 386.482,511.736 383.816,513.403 381.5,515.5C 382.325,516.386 383.325,516.719 384.5,516.5C 384.5,517.5 384.5,518.5 384.5,519.5C 383.5,519.5 382.5,519.5 381.5,519.5C 381.5,520.833 381.5,522.167 381.5,523.5C 375.046,523.877 368.712,524.877 362.5,526.5C 360.5,526.333 358.5,526.167 356.5,526C 359.844,525.43 360.177,524.264 357.5,522.5C 353.878,521.341 350.211,521.175 346.5,522C 351.579,523.541 351.579,524.374 346.5,524.5C 340.582,524.317 334.582,524.151 328.5,524C 311.231,522.057 294.231,518.723 277.5,514C 270.221,511.027 263.221,507.527 256.5,503.5C 255.755,501.253 254.422,499.42 252.5,498C 248.941,496.772 245.608,495.106 242.5,493C 234.394,487.195 226.561,481.028 219,474.5C 213.215,467.892 208.048,460.892 203.5,453.5C 203.709,452.914 204.043,452.414 204.5,452C 202.919,451.293 201.419,450.46 200,449.5C 195.285,441.404 191.119,433.071 187.5,424.5C 187.833,423.833 188.167,423.167 188.5,422.5C 186.311,417.974 185.644,413.308 186.5,408.5C 183.61,403.652 182.61,398.485 183.5,393C 178.058,372.903 178.725,352.903 185.5,333C 185.167,332.667 184.833,332.333 184.5,332C 185.512,328.804 186.678,325.637 188,322.5C 194.445,310.401 200.445,298.067 206,285.5C 220.868,265.299 238.368,247.799 258.5,233C 268.151,228.509 277.485,223.509 286.5,218C 298.055,213.624 309.722,209.624 321.5,206C 332.778,205.847 343.945,204.68 355,202.5C 362.342,203.234 369.676,202.567 377,200.5C 382.931,200.923 388.765,201.756 394.5,203C 392.715,204.163 390.715,204.83 388.5,205C 388.833,205.333 389.167,205.667 389.5,206C 395.527,206.427 401.527,207.093 407.5,208C 412.956,210.728 418.622,212.895 424.5,214.5C 424.291,215.086 423.957,215.586 423.5,216C 412.465,213.549 401.299,211.716 390,210.5C 385.962,211.671 381.962,211.338 378,209.5C 375.521,210.245 373.021,210.911 370.5,211.5C 367.291,210.563 364.125,210.563 361,211.5C 359.908,210.704 358.741,210.037 357.5,209.5C 348.265,211.59 338.932,213.09 329.5,214C 324.604,216.852 319.271,218.519 313.5,219C 309.615,220.853 305.615,222.52 301.5,224C 299.745,224.72 298.911,225.887 299,227.5C 305.949,225.114 312.782,222.281 319.5,219C 324.778,218.79 329.945,217.956 335,216.5C 342.211,216.83 349.377,215.997 356.5,214C 360.918,213.024 365.085,213.524 369,215.5C 370.667,214.833 372.333,214.167 374,213.5C 383.101,214.918 392.267,215.751 401.5,216C 413.969,217.713 425.969,221.046 437.5,226C 440.856,227.186 444.189,227.353 447.5,226.5C 452.684,227.544 457.684,229.044 462.5,231C 466.833,233.896 471.5,236.229 476.5,238C 480.09,242.575 484.757,245.575 490.5,247C 506.408,259.244 520.575,273.077 533,288.5C 533,289.833 533,291.167 533,292.5C 541.03,300.568 547.03,309.901 551,320.5C 574.104,380.897 564.937,436.897 523.5,488.5C 517.947,493.206 513.28,498.039 509.5,503C 479.991,529.163 445.491,544.33 406,548.5C 402.448,548.359 398.948,547.859 395.5,547C 396.09,545.701 397.09,544.868 398.5,544.5C 402.958,543.96 407.291,542.96 411.5,541.5C 408.313,540.135 404.98,539.301 401.5,539C 401.043,538.586 400.709,538.086 400.5,537.5C 408.879,534.573 417.545,532.573 426.5,531.5C 429.138,532.251 431.805,531.918 434.5,530.5C 433.975,529.808 433.308,529.308 432.5,529C 435.798,528.513 438.798,527.347 441.5,525.5C 440.194,525.702 438.694,525.368 437,524.5C 426.892,526.822 416.725,528.822 406.5,530.5C 404.431,530.176 404.098,529.342 405.5,528C 409.782,527.675 414.115,526.509 418.5,524.5C 415.653,523.828 412.819,524.161 410,525.5C 407.904,524.285 408.071,523.451 410.5,523C 415.736,522.11 420.903,520.943 426,519.5C 428.098,520.878 429.932,520.544 431.5,518.5C 430.897,517.365 430.564,516.365 430.5,515.5C 425.951,517.152 421.285,517.652 416.5,517C 417.328,516.085 418.328,515.419 419.5,515C 417.833,514.667 416.167,514.333 414.5,514C 415.167,513.333 415.833,512.667 416.5,512C 414.5,511.667 412.5,511.333 410.5,511C 459.115,494.743 489.781,462.409 502.5,414C 503.811,410.646 504.644,407.146 505,403.5C 505.247,397.137 505.747,390.804 506.5,384.5C 504.974,380.657 505.308,376.99 507.5,373.5C 506.855,372.354 506.022,371.354 505,370.5C 503.736,350.004 497.903,331.004 487.5,313.5C 482.16,306.809 477.326,299.809 473,292.5C 469.454,289.955 466.621,286.788 464.5,283C 456.204,278.852 448.204,274.185 440.5,269C 430.446,264.967 420.446,260.967 410.5,257C 411.167,256.333 411.833,255.667 412.5,255C 410.888,254.28 409.388,254.446 408,255.5C 406.174,253.926 404.007,253.093 401.5,253C 395.453,252.49 389.453,251.657 383.5,250.5C 379.775,251.434 376.109,251.767 372.5,251.5C 370.303,250.934 368.136,250.268 366,249.5C 349.609,252.659 333.442,256.826 317.5,262C 306.83,266.772 296.496,272.106 286.5,278C 275.628,288.204 265.462,299.037 256,310.5C 250.738,321.406 245.738,332.073 241,342.5C 239.249,350.095 237.916,357.762 237,365.5C 235.497,365.835 234.164,365.835 233,365.5C 232.436,367.562 232.936,369.395 234.5,371C 233.978,371.95 233.311,372.784 232.5,373.5C 233.5,374.333 234.5,375.167 235.5,376C 234.536,380.066 234.203,384.233 234.5,388.5 Z"/></g>
<g><path style="opacity:1" fill="#2d2e2b" d="M 369.5,207.5 C 372.001,207.511 372.168,208.178 370,209.5C 369.536,208.906 369.369,208.239 369.5,207.5 Z"/></g>
<g><path style="opacity:1" fill="#2c2b2a" d="M 342.5,219.5 C 343.773,220.077 343.773,220.743 342.5,221.5C 341.537,221.03 341.537,220.363 342.5,219.5 Z"/></g>
<g><path style="opacity:1" fill="#242425" d="M 406.5,222.5 C 408.337,222.639 408.67,223.306 407.5,224.5C 406.702,224.043 406.369,223.376 406.5,222.5 Z"/></g>
<g><path style="opacity:1" fill="#2a2b2b" d="M 412.5,223.5 C 413.289,223.783 413.956,224.283 414.5,225C 413.184,225.528 412.517,225.028 412.5,223.5 Z"/></g>
<g><path style="opacity:1" fill="#111111" d="M 421.5,228.5 C 427.209,229.755 432.875,230.921 438.5,232C 437.101,232.595 435.768,232.428 434.5,231.5C 433.289,232.274 433.289,233.107 434.5,234C 429.516,233.896 424.85,232.562 420.5,230C 421.056,229.617 421.389,229.117 421.5,228.5 Z"/></g>
<g><path style="opacity:1" fill="#5c5b5c" d="M 605.5,233.5 C 607.085,234.002 607.585,235.002 607,236.5C 605.961,235.756 605.461,234.756 605.5,233.5 Z"/></g>
<g><path style="opacity:1" fill="#0d0c0d" d="M 347.5,236.5 C 348.289,236.783 348.956,237.283 349.5,238C 348.184,238.528 347.517,238.028 347.5,236.5 Z"/></g>
<g><path style="opacity:1" fill="#0b0b0b" d="M 355.5,236.5 C 358.775,236.233 359.608,237.233 358,239.5C 356.355,239.307 354.521,239.14 352.5,239C 353.571,238.148 354.571,237.315 355.5,236.5 Z"/></g>
<g><path style="opacity:1" fill="#4b4a4c" d="M 466.5,238.5 C 469.462,238.117 470.462,239.117 469.5,241.5C 467.787,241.121 466.787,240.121 466.5,238.5 Z"/></g>
<g><path style="opacity:1" fill="#434446" d="M 472.5,240.5 C 474.337,240.639 474.67,241.306 473.5,242.5C 472.702,242.043 472.369,241.376 472.5,240.5 Z"/></g>
<g><path style="opacity:1" fill="#4e4d4e" d="M 173.5,240.5 C 175.656,240.872 175.656,241.872 173.5,243.5C 172.913,242.767 172.913,241.767 173.5,240.5 Z"/></g>
<g><path style="opacity:1" fill="#141515" d="M 170.5,243.5 C 171.773,244.077 171.773,244.743 170.5,245.5C 169.537,245.03 169.537,244.363 170.5,243.5 Z"/></g>
<g><path style="opacity:1" fill="#171718" d="M 165.5,247.5 C 166.289,247.783 166.956,248.283 167.5,249C 163.348,252.449 160.014,256.616 157.5,261.5C 156.479,260.998 156.312,260.332 157,259.5C 159.619,255.228 162.453,251.228 165.5,247.5 Z"/></g>
<g><path style="opacity:1" fill="#444545" d="M 502.5,273.5 C 501.711,273.217 501.044,272.717 500.5,272C 501.816,271.472 502.483,271.972 502.5,273.5 Z"/></g>
<g><path style="opacity:1" fill="#2a2a2a" d="M 638.5,273.5 C 640.088,274.635 640.421,275.969 639.5,277.5C 638.571,276.311 638.238,274.978 638.5,273.5 Z"/></g>
<g><path style="opacity:1" fill="#141414" d="M 502.5,273.5 C 507.675,275.921 512.342,279.087 516.5,283C 514.7,283.236 513.034,282.736 511.5,281.5C 508.28,279.061 505.28,276.394 502.5,273.5 Z"/></g>
<g><path style="opacity:1" fill="#0b0b0c" d="M 640.5,278.5 C 644.363,282.102 646.03,286.435 645.5,291.5C 644.89,288.534 643.39,286.201 641,284.5C 640.505,282.527 640.338,280.527 640.5,278.5 Z"/></g>
<g><path style="opacity:1" fill="#060708" d="M 526.5,295.5 C 524.243,294.438 523.077,292.772 523,290.5C 524.802,291.789 525.969,293.456 526.5,295.5 Z"/></g>
<g><path style="opacity:1" fill="#050606" d="M 526.5,295.5 C 530.754,298.924 534.587,302.924 538,307.5C 539.59,309.65 540.257,311.983 540,314.5C 535.49,308.137 530.99,301.804 526.5,295.5 Z"/></g>
<g><path style="opacity:1" fill="#0a090b" d="M 653.5,301.5 C 655.085,302.002 655.585,303.002 655,304.5C 653.961,303.756 653.461,302.756 653.5,301.5 Z"/></g>
<g><path style="opacity:1" fill="#303030" d="M 540.5,315.5 C 542.446,316.254 543.279,317.588 543,319.5C 541.519,318.529 540.685,317.196 540.5,315.5 Z"/></g>
<g><path style="opacity:1" fill="#535353" d="M 656.5,309.5 C 658.167,312.261 659.167,315.428 659.5,319C 659.07,319.92 658.736,320.753 658.5,321.5C 656.997,317.645 656.33,313.645 656.5,309.5 Z"/></g>
<g><path style="opacity:1" fill="#252625" d="M 219.5,354.5 C 221.97,355.36 222.137,356.694 220,358.5C 219.51,357.207 219.343,355.873 219.5,354.5 Z"/></g>
<g><path style="opacity:1" fill="#777577" d="M 183.5,361.5 C 185.225,361.843 185.725,362.843 185,364.5C 183.961,363.756 183.461,362.756 183.5,361.5 Z"/></g>
<g><path style="opacity:1" fill="#070707" d="M 618.5,364.5 C 619.222,364.918 619.722,365.584 620,366.5C 620.667,369.167 620.667,371.833 620,374.5C 618.957,371.243 618.457,367.91 618.5,364.5 Z"/></g>
<g><path style="opacity:1" fill="#030403" d="M 222.5,372.5 C 223.748,373.334 224.415,374.667 224.5,376.5C 224.333,377.833 224.167,379.167 224,380.5C 223.605,377.793 223.105,375.127 222.5,372.5 Z"/></g>
<g><path style="opacity:1" fill="#1b1c1c" d="M 219.5,385.5 C 220.574,390.407 221.407,395.407 222,400.5C 220.702,398.735 219.536,396.901 218.5,395C 218.802,392.054 219.136,388.887 219.5,385.5 Z"/></g>
<g><path style="opacity:1" fill="#f7f7f8" d="M 234.5,388.5 C 235.363,387.537 236.03,387.537 236.5,388.5C 235.743,389.773 235.077,389.773 234.5,388.5 Z"/></g>
<g><path style="opacity:1" fill="#0a0a0a" d="M 187.5,390.5 C 189.441,392.011 189.941,394.011 189,396.5C 188.187,394.564 187.687,392.564 187.5,390.5 Z"/></g>
<g><path style="opacity:1" fill="#121212" d="M 616.5,388.5 C 617.239,388.369 617.906,388.536 618.5,389C 618.793,391.732 618.293,394.566 617,397.5C 617.523,394.458 617.356,391.458 616.5,388.5 Z"/></g>
<g><path style="opacity:1" fill="#0e0e0f" d="M 234.5,421.5 C 236.368,422.786 236.534,424.119 235,425.5C 234.51,424.207 234.343,422.873 234.5,421.5 Z"/></g>
<g><path style="opacity:1" fill="#0d0d0d" d="M 663.5,387.5 C 663.263,389.961 663.596,392.627 664.5,395.5C 662.634,407.632 660.134,419.632 657,431.5C 655.763,433.104 654.597,434.771 653.5,436.5C 653.293,432.61 654.46,428.943 657,425.5C 657.714,418.976 659.214,412.643 661.5,406.5C 661.164,400.204 661.83,393.871 663.5,387.5 Z"/></g>
<g><path style="opacity:1" fill="#1f1e1f" d="M 85.5,424.5 C 87.0878,425.635 87.4212,426.969 86.5,428.5C 85.5713,427.311 85.238,425.978 85.5,424.5 Z"/></g>
<g><path style="opacity:1" fill="#030303" d="M 238.5,427.5 C 240.332,428.14 240.665,429.14 239.5,430.5C 238.614,429.675 238.281,428.675 238.5,427.5 Z"/></g>
<g><path style="opacity:1" fill="#4a4a4b" d="M 85.5,429.5 C 87.2252,429.843 87.7252,430.843 87,432.5C 85.9614,431.756 85.4614,430.756 85.5,429.5 Z"/></g>
<g><path style="opacity:1" fill="#1c1d1e" d="M 248.5,432.5 C 249.289,432.783 249.956,433.283 250.5,434C 249.184,434.528 248.517,434.028 248.5,432.5 Z"/></g>
<g><path style="opacity:1" fill="#171717" d="M 87.5,434.5 C 88.1174,434.611 88.6174,434.944 89,435.5C 90.6396,439.412 91.6396,443.412 92,447.5C 89.0187,443.724 87.5187,439.391 87.5,434.5 Z"/></g>
<g><path style="opacity:1" fill="#1c1c1d" d="M 641.5,467.5 C 642.615,462.61 644.282,457.943 646.5,453.5C 646.598,458.668 644.931,463.335 641.5,467.5 Z"/></g>
<g><path style="opacity:1" fill="#252525" d="M 641.5,467.5 C 641.008,469.819 640.008,471.819 638.5,473.5C 638.461,470.911 639.461,468.911 641.5,467.5 Z"/></g>
<g><path style="opacity:1" fill="#181818" d="M 525.5,473.5 C 526.334,475.263 525.834,476.93 524,478.5C 523.878,476.718 524.378,475.052 525.5,473.5 Z"/></g>
<g><path style="opacity:1" fill="#121212" d="M 638.5,473.5 C 637.585,477.269 635.918,480.602 633.5,483.5C 633.226,479.385 634.893,476.052 638.5,473.5 Z"/></g>
<g><path style="opacity:1" fill="#111211" d="M 106.5,481.5 C 107.077,480.227 107.743,480.227 108.5,481.5C 108.03,482.463 107.363,482.463 106.5,481.5 Z"/></g>
<g><path style="opacity:1" fill="#1b1b1b" d="M 118.5,497.5 C 115.864,494.69 113.364,491.69 111,488.5C 110.437,487.275 110.77,486.275 112,485.5C 114.954,489.075 117.121,493.075 118.5,497.5 Z"/></g>
<g><path style="opacity:1" fill="#161617" d="M 628.5,491.5 C 628.812,488.727 629.978,486.393 632,484.5C 632.443,487.614 631.276,489.948 628.5,491.5 Z"/></g>
<g><path style="opacity:1" fill="#3c3d3d" d="M 628.5,491.5 C 628.716,493.681 627.883,495.347 626,496.5C 626.097,494.541 626.93,492.875 628.5,491.5 Z"/></g>
<g><path style="opacity:1" fill="#191919" d="M 118.5,497.5 C 120.446,498.254 121.279,499.588 121,501.5C 119.519,500.529 118.685,499.196 118.5,497.5 Z"/></g>
<g><path style="opacity:1" fill="#373739" d="M 266.5,498.5 C 267.683,499.504 269.016,500.338 270.5,501C 268.055,501.91 266.722,501.076 266.5,498.5 Z"/></g>
<g><path style="opacity:1" fill="#060707" d="M 500.5,499.5 C 501.239,499.369 501.906,499.536 502.5,500C 501.333,501.167 500.167,502.333 499,503.5C 498.7,501.934 499.2,500.601 500.5,499.5 Z"/></g>
<g><path style="opacity:1" fill="#646465" d="M 365.5,506.5 C 366.675,506.281 367.675,506.614 368.5,507.5C 366.948,508.798 365.948,508.465 365.5,506.5 Z"/></g>
<g><path style="opacity:1" fill="#1d1d1d" d="M 180.5,505.5 C 183.395,507.202 185.228,509.536 186,512.5C 183.546,510.559 181.713,508.225 180.5,505.5 Z"/></g>
<g><path style="opacity:1" fill="#000000" d="M 128.5,512.5 C 129.077,511.227 129.743,511.227 130.5,512.5C 130.03,513.463 129.363,513.463 128.5,512.5 Z"/></g>
<g><path style="opacity:1" fill="#0d0d0e" d="M 296.5,512.5 C 291.131,511.822 286.131,509.988 281.5,507C 286.932,507.754 291.932,509.587 296.5,512.5 Z"/></g>
<g><path style="opacity:1" fill="#080909" d="M 296.5,512.5 C 298.786,512.595 300.786,513.262 302.5,514.5C 300.102,514.741 298.102,514.074 296.5,512.5 Z"/></g>
<g><path style="opacity:1" fill="#242425" d="M 302.5,514.5 C 305.226,514.264 307.559,515.097 309.5,517C 306.974,516.738 304.64,515.905 302.5,514.5 Z"/></g>
<g><path style="opacity:1" fill="#0f0f11" d="M 311.5,517.5 C 312.708,516.218 314.042,516.218 315.5,517.5C 314.443,517.906 313.109,517.906 311.5,517.5 Z"/></g>
<g><path style="opacity:1" fill="#0c0d0c" d="M 318.5,518.5 C 318.917,517.876 319.584,517.543 320.5,517.5C 325.173,518.287 329.84,519.12 334.5,520C 329.109,520.269 323.776,519.769 318.5,518.5 Z"/></g>
<g><path style="opacity:1" fill="#171717" d="M 139.5,526.5 C 139.897,525.475 140.563,525.308 141.5,526C 143.954,527.74 145.454,529.907 146,532.5C 143.963,530.294 141.797,528.294 139.5,526.5 Z"/></g>
<g><path style="opacity:1" fill="#242628" d="M 205.5,530.5 C 206.289,530.783 206.956,531.283 207.5,532C 206.184,532.528 205.517,532.028 205.5,530.5 Z"/></g>
<g><path style="opacity:1" fill="#1f2020" d="M 453.5,533.5 C 454.773,534.077 454.773,534.743 453.5,535.5C 452.537,535.03 452.537,534.363 453.5,533.5 Z"/></g>
<g><path style="opacity:1" fill="#050405" d="M 161.5,547.5 C 159.243,546.438 158.077,544.772 158,542.5C 159.802,543.789 160.969,545.456 161.5,547.5 Z"/></g>
<g><path style="opacity:1" fill="#6b6c6c" d="M 161.5,547.5 C 164.204,547.67 165.871,549.003 166.5,551.5C 164.611,550.396 162.945,549.063 161.5,547.5 Z"/></g>
<g><path style="opacity:1" fill="#636463" d="M 166.5,551.5 C 167.756,551.461 168.756,551.961 169.5,553C 168.002,553.585 167.002,553.085 166.5,551.5 Z"/></g>
<g><path style="opacity:1" fill="#717172" d="M 580.5,563.5 C 582.657,564.053 582.49,565.053 580,566.5C 579.53,565.423 579.697,564.423 580.5,563.5 Z"/></g>
<g><path style="opacity:1" fill="#0a0a0b" d="M 285.5,565.5 C 285.917,564.876 286.584,564.543 287.5,564.5C 289.5,565 291.5,565.5 293.5,566C 290.779,566.602 288.113,566.435 285.5,565.5 Z"/></g>
<g><path style="opacity:1" fill="#201f1f" d="M 574.5,569.5 C 577.001,569.511 577.168,570.178 575,571.5C 574.536,570.906 574.369,570.239 574.5,569.5 Z"/></g>
<g><path style="opacity:1" fill="#656667" d="M 559.5,581.5 C 560.774,582.189 560.774,583.023 559.5,584C 558.241,584.982 556.908,585.315 555.5,585C 557.093,584.051 558.426,582.885 559.5,581.5 Z"/></g>
<g><path style="opacity:1" fill="#111111" d="M 285.5,583.5 C 289.142,584.08 292.809,584.58 296.5,585C 293.279,586.54 289.946,586.707 286.5,585.5C 286.5,586.5 286.5,587.5 286.5,588.5C 285.022,588.762 283.689,588.429 282.5,587.5C 283.524,586.148 284.524,584.815 285.5,583.5 Z"/></g>
<g><path style="opacity:1" fill="#69696b" d="M 231.5,595.5 C 232.386,594.224 233.386,594.224 234.5,595.5C 233.575,596.562 232.575,596.562 231.5,595.5 Z"/></g>
<g><path style="opacity:1" fill="#111111" d="M 276.5,602.5 C 277.552,602.351 278.552,602.517 279.5,603C 277.695,603.972 276.028,605.139 274.5,606.5C 273.614,605.675 273.281,604.675 273.5,603.5C 274.791,603.737 275.791,603.404 276.5,602.5 Z"/></g>
<g><path style="opacity:1" fill="#4a4a4a" d="M 506.5,612.5 C 507.14,610.668 508.14,610.335 509.5,611.5C 508.675,612.386 507.675,612.719 506.5,612.5 Z"/></g>
<g><path style="opacity:1" fill="#2a2b2c" d="M 506.5,612.5 C 504.575,614.462 502.242,615.295 499.5,615C 501.65,613.589 503.984,612.755 506.5,612.5 Z"/></g>
<g><path style="opacity:1" fill="#101010" d="M 495.5,616.5 C 497.379,616.393 497.712,616.893 496.5,618C 493.947,618.761 491.447,619.594 489,620.5C 488.833,620.167 488.667,619.833 488.5,619.5C 491,618.641 493.333,617.641 495.5,616.5 Z"/></g>
<g><path style="opacity:1" fill="#0c0c0d" d="M 480.5,623.5 C 481.438,620.955 482.771,620.455 484.5,622C 483.255,622.791 481.922,623.291 480.5,623.5 Z"/></g>
<g><path style="opacity:1" fill="#7c7c7c" d="M 373.5,623.5 C 375.924,623.192 378.257,623.526 380.5,624.5C 379.333,624.833 378.167,625.167 377,625.5C 375.319,625.392 374.152,624.725 373.5,623.5 Z"/></g>
<g><path style="opacity:1" fill="#6a6a6b" d="M 389.5,623.5 C 391.337,623.639 391.67,624.306 390.5,625.5C 389.702,625.043 389.369,624.376 389.5,623.5 Z"/></g>
<g><path style="opacity:1" fill="#080909" d="M 480.5,623.5 C 478.786,624.738 476.786,625.405 474.5,625.5C 476.102,623.926 478.102,623.259 480.5,623.5 Z"/></g>
<g><path style="opacity:1" fill="#0c0c0c" d="M 435.5,622.5 C 436.043,622.56 436.376,622.893 436.5,623.5C 424.004,628.495 411.004,631.328 397.5,632C 409.437,628.35 422.103,625.184 435.5,622.5 Z"/></g>
<g><path style="opacity:1" fill="#0b0c0c" d="M 474.5,625.5 C 470.052,628.536 465.052,630.202 459.5,630.5C 462.72,629.009 466.054,627.509 469.5,626C 471.134,625.506 472.801,625.34 474.5,625.5 Z"/></g>
<g><path style="opacity:1" fill="#171617" d="M 459.5,630.5 C 456.59,632.775 453.256,633.609 449.5,633C 452.608,631.241 455.941,630.408 459.5,630.5 Z"/></g>
<g><path style="opacity:1" fill="#19191a" d="M 439.5,633.5 C 441.655,633.372 443.655,633.872 445.5,635C 440.741,636.167 436.074,637.167 431.5,638C 433.82,635.679 436.486,634.179 439.5,633.5 Z"/></g>
<g><path style="opacity:1" fill="#131313" d="M 320.5,652.5 C 322.035,651.212 323.701,651.212 325.5,652.5C 324.113,652.807 322.446,652.807 320.5,652.5 Z"/></g>
<g><path style="opacity:1" fill="#111111" d="M 334.5,652.5 C 335.849,651.203 337.182,651.37 338.5,653C 337.072,653.579 335.738,653.412 334.5,652.5 Z"/></g>
</svg>
