<?xml version="1.0" encoding="UTF-8"?>
<!DOCTYPE svg PUBLIC "-//W3C//DTD SVG 1.1//EN" "http://www.w3.org/Graphics/SVG/1.1/DTD/svg11.dtd">
<svg xmlns="http://www.w3.org/2000/svg" version="1.1" width="742px" height="742px" style="shape-rendering:geometricPrecision; text-rendering:geometricPrecision; image-rendering:optimizeQuality; fill-rule:evenodd; clip-rule:evenodd" xmlns:xlink="http://www.w3.org/1999/xlink">
<g><path style="opacity:0.997" fill="#fafafa" d="M 343.5,-0.5 C 361.5,-0.5 379.5,-0.5 397.5,-0.5C 524.663,12.6045 622.163,72.9378 690,180.5C 719.355,231.062 736.522,285.395 741.5,343.5C 741.5,361.5 741.5,379.5 741.5,397.5C 728.396,524.663 668.062,622.163 560.5,690C 509.938,719.355 455.605,736.522 397.5,741.5C 379.5,741.5 361.5,741.5 343.5,741.5C 216.337,728.396 118.837,668.062 51,560.5C 21.6449,509.938 4.47822,455.605 -0.5,397.5C -0.5,379.5 -0.5,361.5 -0.5,343.5C 12.6045,216.337 72.9378,118.837 180.5,51C 231.062,21.6449 285.395,4.47822 343.5,-0.5 Z"/></g>
<g><path style="opacity:1" fill="#7fb8dc" d="M 271.5,549.5 C 271.62,550.586 272.287,551.253 273.5,551.5C 277.15,552.73 280.816,553.896 284.5,555C 285.357,555.689 286.023,556.522 286.5,557.5C 283.502,561.997 281.168,566.831 279.5,572C 281.278,574.225 281.778,576.725 281,579.5C 277.957,582.509 274.957,585.509 272,588.5C 271.318,590.938 271.818,593.105 273.5,595C 273.167,595.5 272.833,596 272.5,596.5C 267.346,597.81 262.18,597.81 257,596.5C 256.5,596.667 256,596.833 255.5,597C 256.381,597.708 257.047,598.542 257.5,599.5C 256.094,599.973 255.427,600.973 255.5,602.5C 246.442,599.981 237.442,597.148 228.5,594C 227.44,592.702 226.274,591.535 225,590.5C 219.515,588.437 214.015,586.437 208.5,584.5C 206.851,582.005 204.517,580.505 201.5,580C 200.501,577.239 198.501,575.906 195.5,576C 173.987,561.155 153.487,544.988 134,527.5C 127.663,518.506 120.663,510.173 113,502.5C 109.843,494.182 105.177,486.849 99,480.5C 92.5169,467.197 86.8502,453.53 82,439.5C 81.0012,431.515 79.0012,423.848 76,416.5C 74.2519,399.092 72.0852,381.758 69.5,364.5C 70.1667,363.833 70.8333,363.167 71.5,362.5C 70.383,361.051 69.7163,359.384 69.5,357.5C 69.481,354.761 70.1477,352.261 71.5,350C 70.5808,346.903 70.2474,343.903 70.5,341C 71.3081,340.692 71.9747,340.192 72.5,339.5C 70.3533,336.999 70.3533,334.332 72.5,331.5C 72.0233,330.522 71.3567,329.689 70.5,329C 71.9116,327.587 72.9116,325.92 73.5,324C 72.4832,320.3 72.9832,316.8 75,313.5C 75.3333,310.5 75.6667,307.5 76,304.5C 79.1824,296.086 81.5158,287.419 83,278.5C 86.7049,270.258 90.5382,262.091 94.5,254C 91.8693,252.309 92.2027,251.142 95.5,250.5C 97.3512,244.063 100.518,238.396 105,233.5C 110.673,221.473 117.34,210.139 125,199.5C 137.018,184.312 149.851,169.812 163.5,156C 168.355,154.48 172.022,151.48 174.5,147C 180.199,142.818 186.199,139.152 192.5,136C 197.099,131.881 202.099,128.548 207.5,126C 209.019,124.649 210.352,123.149 211.5,121.5C 217.317,119.618 222.984,117.452 228.5,115C 234.313,110.959 240.647,107.959 247.5,106C 248.5,105 249.5,104 250.5,103C 266.451,97.3499 282.451,92.0165 298.5,87C 305.727,85.231 313.06,84.231 320.5,84C 323.922,83.3264 327.089,82.1598 330,80.5C 333.402,81.7891 337.069,82.4558 341,82.5C 349.861,82.1922 358.694,81.5255 367.5,80.5C 371.519,81.6175 375.519,81.6175 379.5,80.5C 381.055,80.722 382.389,81.3887 383.5,82.5C 384.852,81.1038 386.519,80.4371 388.5,80.5C 392.006,81.769 395.506,81.769 399,80.5C 401.032,80.8584 402.866,81.6917 404.5,83C 407.429,83.7772 410.263,83.6105 413,82.5C 414.491,84.0037 416.324,84.8371 418.5,85C 422.819,85.7599 427.152,86.4265 431.5,87C 435.223,89.2435 439.223,90.9101 443.5,92C 445.907,94.7019 448.407,97.2019 451,99.5C 452.882,98.9067 453.882,97.5733 454,95.5C 458.882,97.9789 461.548,101.646 462,106.5C 463.5,108.667 465.333,110.5 467.5,112C 466.914,114.28 466.08,116.447 465,118.5C 464.017,116.552 462.85,114.718 461.5,113C 458.19,111.373 454.856,109.707 451.5,108C 441.976,109.353 432.81,108.187 424,104.5C 423.5,104.833 423,105.167 422.5,105.5C 428.72,109.969 435.72,112.803 443.5,114C 445.503,116.002 447.836,117.502 450.5,118.5C 453.262,121.357 454.929,124.691 455.5,128.5C 453.61,128.297 452.11,128.963 451,130.5C 447.676,126.535 444.51,126.535 441.5,130.5C 441.833,130.833 442.167,131.167 442.5,131.5C 444.071,130.691 445.738,130.357 447.5,130.5C 448.167,132.833 448.833,135.167 449.5,137.5C 446.09,137.384 444.756,139.05 445.5,142.5C 441.725,142.721 438.391,144.054 435.5,146.5C 429.942,143.636 424.442,143.303 419,145.5C 417.561,143.552 415.728,142.219 413.5,141.5C 402.797,142.849 392.131,142.516 381.5,140.5C 377.914,140.939 374.414,141.606 371,142.5C 366.053,139.214 360.886,138.881 355.5,141.5C 351.471,140.92 347.471,140.586 343.5,140.5C 342.3,141.531 340.966,142.365 339.5,143C 333.175,143.5 326.842,143.666 320.5,143.5C 320.67,144.822 320.337,145.989 319.5,147C 315.294,147.261 311.127,147.761 307,148.5C 303.361,147.064 300.528,148.064 298.5,151.5C 297.808,150.975 297.308,150.308 297,149.5C 292.147,151.194 287.647,153.528 283.5,156.5C 278.507,155.111 274.507,156.611 271.5,161C 260.513,165.293 249.846,170.293 239.5,176C 236.879,179.95 233.212,182.284 228.5,183C 204.956,200.212 185.123,221.046 169,245.5C 165.014,254.14 160.014,262.14 154,269.5C 148.466,282.58 143.466,295.913 139,309.5C 136.295,319.879 133.795,330.212 131.5,340.5C 132.046,341.772 132.379,343.106 132.5,344.5C 132.296,349.962 131.296,355.129 129.5,360C 131.983,362.264 131.983,364.597 129.5,367C 131.639,382.564 134.139,398.064 137,413.5C 140.084,422.211 143.417,430.877 147,439.5C 154.347,452.199 161.68,464.866 169,477.5C 177.478,486.13 185.311,495.13 192.5,504.5C 199.047,508.382 205.047,512.882 210.5,518C 214.802,520.002 218.802,522.335 222.5,525C 227.413,530.201 233.413,533.534 240.5,535C 250.278,540.926 260.612,545.759 271.5,549.5 Z"/></g>
<g><path style="opacity:1" fill="#f4f8fb" d="M 363.5,86.5 C 367.514,86.3345 371.514,86.5012 375.5,87C 373.541,88.0963 371.375,88.5963 369,88.5C 366.705,88.4535 364.871,87.7868 363.5,86.5 Z"/></g>
<g><path style="opacity:1" fill="#f3f7fa" d="M 341.5,86.5 C 345.582,86.3436 349.582,86.8436 353.5,88C 349.195,89.7104 344.862,91.2104 340.5,92.5C 336.226,92.9047 331.893,92.9047 327.5,92.5C 323.931,93.9674 320.264,95.1341 316.5,96C 304.021,98.1479 291.688,99.8146 279.5,101C 281.597,99.3896 283.93,98.2229 286.5,97.5C 292.265,96.5782 297.932,95.2449 303.5,93.5C 302.975,92.8076 302.308,92.3076 301.5,92C 302,91.8333 302.5,91.6667 303,91.5C 307.071,92.2755 311.071,92.6088 315,92.5C 323.813,90.1425 332.646,88.1425 341.5,86.5 Z"/></g>
<g><path style="opacity:1" fill="#f7f9fb" d="M 427.5,126.5 C 431.614,124.786 435.281,125.62 438.5,129C 434.991,128.036 431.324,127.203 427.5,126.5 Z"/></g>
<g><path style="opacity:1" fill="#eff5f9" d="M 333.5,135.5 C 336.173,136.703 338.84,136.703 341.5,135.5C 342.5,136 343.5,136.5 344.5,137C 332.496,138.601 320.829,140.934 309.5,144C 307.167,144.667 304.833,144.667 302.5,144C 306.255,143.328 309.255,141.495 311.5,138.5C 316.713,138.681 321.88,138.681 327,138.5C 329.045,137.074 331.212,136.074 333.5,135.5 Z"/></g>
<g><path style="opacity:1" fill="#e8f0f7" d="M 427.5,137.5 C 429.924,137.192 432.257,137.526 434.5,138.5C 434.167,139.5 433.5,140.167 432.5,140.5C 430.241,140.216 428.574,139.216 427.5,137.5 Z"/></g>
<g><path style="opacity:1" fill="#eea0af" d="M 525.5,597.5 C 519.822,600.336 514.489,603.669 509.5,607.5C 493.21,613.986 476.71,619.986 460,625.5C 458.278,625.389 458.112,624.889 459.5,624C 472.45,618.524 485.117,612.524 497.5,606C 482.45,610.271 467.783,615.771 453.5,622.5C 452.501,625.174 450.834,625.841 448.5,624.5C 447.3,625.531 445.966,626.365 444.5,627C 438.614,627.469 432.781,628.302 427,629.5C 423.836,629.233 422.836,627.567 424,624.5C 426.041,623.577 428.208,623.244 430.5,623.5C 430.33,622.178 430.663,621.011 431.5,620C 434.444,618.116 437.444,616.616 440.5,615.5C 439.207,614.842 437.707,614.508 436,614.5C 420.495,615.402 404.995,615.902 389.5,616C 390.711,615.107 390.711,614.274 389.5,613.5C 384.821,616.021 379.821,617.021 374.5,616.5C 375.812,613.976 376.312,611.309 376,608.5C 373.691,607.025 371.524,605.358 369.5,603.5C 365.516,604.77 361.516,604.77 357.5,603.5C 355.941,601.869 353.941,601.036 351.5,601C 350.833,600 350.167,599 349.5,598C 338.029,595.603 337.695,592.436 348.5,588.5C 361.17,590.02 373.837,590.353 386.5,589.5C 393.54,590.913 400.373,590.246 407,587.5C 408.285,587.95 409.452,588.617 410.5,589.5C 414.092,588.093 417.759,586.926 421.5,586C 424.833,585.667 428.167,585.333 431.5,585C 438.568,581.151 446.235,579.317 454.5,579.5C 454.5,578.5 454.5,577.5 454.5,576.5C 457.521,575.995 460.521,575.328 463.5,574.5C 471.811,569.51 480.478,565.344 489.5,562C 496.716,558.117 503.383,553.45 509.5,548C 511.246,547.529 512.913,546.862 514.5,546C 519.351,541.092 524.351,536.425 529.5,532C 530.833,531.333 532.167,530.667 533.5,530C 544.007,519.159 554.174,507.992 564,496.5C 565.156,492.175 567.656,488.842 571.5,486.5C 574.094,481.889 576.594,477.222 579,472.5C 582.619,468.098 586.119,463.598 589.5,459C 591.415,450.668 594.582,442.835 599,435.5C 600.557,428.825 602.89,422.492 606,416.5C 606.899,406.311 608.732,396.311 611.5,386.5C 609.974,379.729 610.307,373.062 612.5,366.5C 610.783,359.18 610.117,351.847 610.5,344.5C 607.644,334.437 605.477,324.437 604,314.5C 599.09,300.015 593.09,286.015 586,272.5C 578.726,261.558 571.06,250.892 563,240.5C 556.531,235.032 550.364,229.199 544.5,223C 536.585,218.411 529.252,213.078 522.5,207C 514.965,202.151 507.298,197.484 499.5,193C 481.662,186.055 463.662,179.721 445.5,174C 447.035,173.504 448.535,173.67 450,174.5C 451.225,174.138 452.391,173.638 453.5,173C 454.116,170.821 455.283,168.988 457,167.5C 457.051,163.843 456.718,160.177 456,156.5C 455.682,154.939 454.849,153.772 453.5,153C 455.901,150.938 458.567,149.271 461.5,148C 462.573,146.687 463.24,145.187 463.5,143.5C 462.024,141.382 460.024,139.882 457.5,139C 459.646,137.267 461.98,137.1 464.5,138.5C 465.672,138.081 466.672,137.415 467.5,136.5C 471.108,137.593 474.775,137.76 478.5,137C 477.663,135.989 477.33,134.822 477.5,133.5C 483.707,136.177 490.04,138.677 496.5,141C 497.551,142.385 498.884,143.385 500.5,144C 516.433,147.487 531.767,152.82 546.5,160C 555.4,166.996 564.733,173.163 574.5,178.5C 575.228,180.193 576.228,181.693 577.5,183C 581.178,184.502 584.511,186.502 587.5,189C 593.505,195.635 600.505,201.968 608.5,208C 617.038,219.511 626.205,230.678 636,241.5C 636.333,243.167 636.667,244.833 637,246.5C 642.366,253.934 647.366,261.601 652,269.5C 655.467,279.76 659.467,289.76 664,299.5C 668.541,318.893 671.374,338.393 672.5,358C 671.93,369.746 671.097,381.58 670,393.5C 667.738,403.673 665.405,414.007 663,424.5C 659.86,432.69 656.86,441.024 654,449.5C 647.528,463.242 640.861,476.908 634,490.5C 631.454,493.037 629.788,496.037 629,499.5C 623.564,504.07 619.731,509.737 617.5,516.5C 608.203,526.421 599.37,536.754 591,547.5C 584.658,551.713 579.492,556.379 575.5,561.5C 574.808,560.975 574.308,560.308 574,559.5C 574.088,563.246 572.254,565.246 568.5,565.5C 567.614,566.325 567.281,567.325 567.5,568.5C 563.471,569.186 560.471,571.353 558.5,575C 554.873,575.463 552.207,577.297 550.5,580.5C 546.116,582.048 542.782,584.881 540.5,589C 535.611,592.061 530.611,594.895 525.5,597.5 Z"/></g>
<g><path style="opacity:1" fill="#f3f7fa" d="M 292.5,144.5 C 295.209,145.483 297.876,145.65 300.5,145C 299.833,146 299.167,147 298.5,148C 288.936,150.927 279.269,153.427 269.5,155.5C 268.636,157.197 267.303,158.363 265.5,159C 259.905,158.811 254.905,160.311 250.5,163.5C 250.094,162.443 250.094,161.109 250.5,159.5C 262.597,156.19 274.43,152.19 286,147.5C 286.414,147.957 286.914,148.291 287.5,148.5C 288.981,146.851 290.648,145.518 292.5,144.5 Z"/></g>
<g><path style="opacity:1" fill="#f9f8f9" d="M 514.5,154.5 C 515.251,153.427 516.251,153.26 517.5,154C 521.327,155.746 524.993,157.746 528.5,160C 523.418,159.388 518.751,157.555 514.5,154.5 Z"/></g>
<g><path style="opacity:1" fill="#f9eff1" d="M 556.5,179.5 C 559.982,181.748 563.316,184.248 566.5,187C 565.092,187.315 563.759,186.982 562.5,186C 560.101,184.02 558.101,181.853 556.5,179.5 Z"/></g>
<g><path style="opacity:1" fill="#7eb8dc" d="M 347.5,194.5 C 347.5,195.5 347.5,196.5 347.5,197.5C 354.262,197.265 360.928,197.265 367.5,197.5C 364.653,199.078 361.653,200.412 358.5,201.5C 356.5,201.5 354.5,201.5 352.5,201.5C 351.749,200.427 350.749,200.26 349.5,201C 348.223,202.786 346.556,203.952 344.5,204.5C 337.683,203.683 331.016,203.683 324.5,204.5C 322.203,205.649 319.87,206.815 317.5,208C 312.53,208.036 307.863,209.202 303.5,211.5C 305.917,211.399 308.583,211.732 311.5,212.5C 319.995,210.625 328.495,208.959 337,207.5C 339.098,208.878 340.932,208.544 342.5,206.5C 343.167,207.5 343.833,208.5 344.5,209.5C 347.384,208.791 350.051,207.791 352.5,206.5C 354.533,206.949 356.2,207.949 357.5,209.5C 356.147,210.524 355.48,211.857 355.5,213.5C 352.746,213.784 350.08,214.451 347.5,215.5C 347.709,216.086 348.043,216.586 348.5,217C 352.493,217.17 356.493,217.004 360.5,216.5C 360.5,217.833 360.5,219.167 360.5,220.5C 355.121,220.771 349.788,221.438 344.5,222.5C 344.957,223.298 345.624,223.631 346.5,223.5C 348.479,225.168 350.812,225.834 353.5,225.5C 353.66,227.199 353.494,228.866 353,230.5C 349.826,232.668 346.326,234.168 342.5,235C 341.62,236.356 341.286,237.856 341.5,239.5C 347.154,238.556 352.82,238.056 358.5,238C 355.899,238.92 353.232,239.587 350.5,240C 348.456,240.498 347.122,241.665 346.5,243.5C 338.449,246.386 330.115,248.219 321.5,249C 309.305,254.891 297.305,261.057 285.5,267.5C 284.07,270.433 282.07,272.933 279.5,275C 278.833,275.667 278.167,275.667 277.5,275C 278.696,274.346 278.696,273.846 277.5,273.5C 276.941,277.06 274.941,279.393 271.5,280.5C 270.571,281.689 270.238,283.022 270.5,284.5C 264.244,287.259 259.744,291.925 257,298.5C 256.097,299.701 254.931,300.535 253.5,301C 253.957,301.414 254.291,301.914 254.5,302.5C 246.992,311.134 241.992,320.801 239.5,331.5C 237.276,334.153 235.609,337.153 234.5,340.5C 234.837,346.978 234.17,353.478 232.5,360C 233.939,362.903 233.606,365.57 231.5,368C 234.095,372.091 234.761,376.424 233.5,381C 236.317,398.173 242.817,413.673 253,427.5C 258.38,433.709 263.88,439.709 269.5,445.5C 275.976,450.142 282.309,454.975 288.5,460C 293.885,462.665 299.218,465.332 304.5,468C 307.521,468.849 310.521,469.683 313.5,470.5C 313.5,471.5 313.5,472.5 313.5,473.5C 325.852,477.141 338.186,480.975 350.5,485C 357.357,485.26 364.191,485.76 371,486.5C 375.936,485.766 380.77,486.433 385.5,488.5C 390.063,487.767 394.563,486.767 399,485.5C 400.404,485.509 401.57,486.009 402.5,487C 399.994,488.299 397.327,489.299 394.5,490C 394.167,490.333 393.833,490.667 393.5,491C 394.833,491.333 396.167,491.667 397.5,492C 396.167,494.667 394.167,496.667 391.5,498C 386.738,498.345 382.071,499.178 377.5,500.5C 374.343,498.704 371.677,499.204 369.5,502C 375.672,503.836 382.005,504.836 388.5,505C 389.833,506 389.833,507 388.5,508C 384.971,508.622 381.471,508.455 378,507.5C 377.167,507.833 376.333,508.167 375.5,508.5C 377.27,509.82 377.603,511.32 376.5,513C 374.754,513.471 373.087,514.138 371.5,515C 366.582,515.195 361.749,515.695 357,516.5C 356.383,515.551 356.549,514.718 357.5,514C 359.715,513.83 361.715,513.163 363.5,512C 359.045,510.365 354.545,509.198 350,508.5C 348.225,509.27 346.725,510.437 345.5,512C 341.377,512.112 338.21,513.945 336,517.5C 332.95,515.21 329.616,514.877 326,516.5C 320.748,513.219 314.915,511.052 308.5,510C 306.404,508.234 304.071,506.901 301.5,506C 292.971,504.886 284.971,502.386 277.5,498.5C 276.833,498.833 276.167,499.167 275.5,499.5C 276.263,500.719 277.263,501.719 278.5,502.5C 278.291,503.086 277.957,503.586 277.5,504C 272.362,503.934 268.029,501.934 264.5,498C 261.5,496.833 258.5,495.667 255.5,494.5C 253.409,490.074 250.076,487.074 245.5,485.5C 246.641,484.575 246.641,483.741 245.5,483C 239.146,481.331 234.146,477.664 230.5,472C 223.503,467.905 217.337,462.738 212,456.5C 207.022,446.554 201.022,437.22 194,428.5C 190.003,419.51 187.003,410.176 185,400.5C 184.342,390.377 182.842,380.377 180.5,370.5C 181.962,366.461 181.629,362.627 179.5,359C 180.836,348.471 182.336,337.971 184,327.5C 185.627,325.027 186.127,322.527 185.5,320C 188.987,312.839 191.821,305.339 194,297.5C 195.333,296.167 196.667,294.833 198,293.5C 207.352,267.366 223.852,246.866 247.5,232C 248.641,231.259 248.641,230.425 247.5,229.5C 256.408,222.715 266.075,217.549 276.5,214C 278.657,212.088 280.991,210.421 283.5,209C 294.708,204.958 306.042,201.291 317.5,198C 322.572,197.322 327.572,196.322 332.5,195C 337.489,194.501 342.489,194.334 347.5,194.5 Z"/></g>
<g><path style="opacity:1" fill="#ed99a8" d="M 367.5,197.5 C 360.928,197.265 354.262,197.265 347.5,197.5C 347.5,196.5 347.5,195.5 347.5,194.5C 357.55,194.58 367.55,193.914 377.5,192.5C 387.639,193.828 397.639,195.661 407.5,198C 414.157,200.994 420.823,203.994 427.5,207C 407.728,202.77 387.728,199.603 367.5,197.5 Z"/></g>
<g><path style="opacity:1" fill="#f5f6f8" d="M 352.5,201.5 C 351.438,203.099 351.438,204.766 352.5,206.5C 350.051,207.791 347.384,208.791 344.5,209.5C 343.833,208.5 343.167,207.5 342.5,206.5C 340.932,208.544 339.098,208.878 337,207.5C 328.495,208.959 319.995,210.625 311.5,212.5C 308.583,211.732 305.917,211.399 303.5,211.5C 307.863,209.202 312.53,208.036 317.5,208C 319.87,206.815 322.203,205.649 324.5,204.5C 331.016,203.683 337.683,203.683 344.5,204.5C 346.556,203.952 348.223,202.786 349.5,201C 350.749,200.26 351.749,200.427 352.5,201.5 Z"/></g>
<g><path style="opacity:1" fill="#69b6de" d="M 359.5,201.5 C 364.316,200.839 368.649,201.839 372.5,204.5C 372.808,206.924 372.474,209.257 371.5,211.5C 369.124,209.373 368.124,206.707 368.5,203.5C 365.311,203.142 362.311,202.475 359.5,201.5 Z"/></g>
<g><path style="opacity:1" fill="#f4f7f9" d="M 346.5,223.5 C 348.607,222.532 350.941,222.198 353.5,222.5C 353.5,223.5 353.5,224.5 353.5,225.5C 350.812,225.834 348.479,225.168 346.5,223.5 Z"/></g>
<g><path style="opacity:1" fill="#eaf1f6" d="M 164.5,236.5 C 165.525,236.897 165.692,237.563 165,238.5C 162.982,240.35 161.149,242.35 159.5,244.5C 158.386,243.277 158.219,241.944 159,240.5C 161.463,239.968 163.297,238.634 164.5,236.5 Z"/></g>
<g><path style="opacity:1" fill="#ed9fae" d="M 352.5,201.5 C 354.5,201.5 356.5,201.5 358.5,201.5C 358.833,201.5 359.167,201.5 359.5,201.5C 362.311,202.475 365.311,203.142 368.5,203.5C 368.124,206.707 369.124,209.373 371.5,211.5C 372.474,209.257 372.808,206.924 372.5,204.5C 378.653,203.347 384.986,203.18 391.5,204C 413.531,210.378 435.865,215.378 458.5,219C 475.882,228.288 492.215,239.122 507.5,251.5C 508.281,252.729 508.781,254.062 509,255.5C 517.016,262.016 524.183,269.349 530.5,277.5C 535.582,287.338 541.416,296.671 548,305.5C 558.654,329.767 563.82,355.267 563.5,382C 561.689,390.953 560.022,399.953 558.5,409C 558.645,409.772 558.978,410.439 559.5,411C 552.53,429.923 544.03,448.09 534,465.5C 519.936,483.895 503.436,500.061 484.5,514C 481.79,515.747 478.79,516.747 475.5,517C 470.653,522.423 464.653,525.756 457.5,527C 448.244,531.608 438.411,534.441 428,535.5C 422.526,534.588 417.026,534.588 411.5,535.5C 407.361,535.587 403.361,534.92 399.5,533.5C 402.803,531.435 405.803,528.935 408.5,526C 421.314,523.716 433.648,520.049 445.5,515C 443.343,514.922 441.343,514.755 439.5,514.5C 435.599,517.008 431.265,518.008 426.5,517.5C 422.01,517.679 417.676,517.012 413.5,515.5C 412.914,515.709 412.414,516.043 412,516.5C 412.222,514.544 413.055,512.71 414.5,511C 417.979,508.825 421.646,506.825 425.5,505C 426.687,503.981 427.687,502.814 428.5,501.5C 422.575,501.397 416.575,501.23 410.5,501C 411.167,500.333 411.833,499.667 412.5,499C 417.317,497.754 422.151,496.587 427,495.5C 434.927,490.883 442.76,486.049 450.5,481C 455.782,475.265 461.615,470.099 468,465.5C 476.532,454.969 484.532,443.969 492,432.5C 501.059,412.607 506.559,391.607 508.5,369.5C 506.221,366.893 505.888,364.06 507.5,361C 505.894,343.486 501.061,326.986 493,311.5C 484.161,296.276 473.327,282.776 460.5,271C 435.726,252.187 407.893,241.02 377,237.5C 366.736,239.204 356.569,241.204 346.5,243.5C 347.122,241.665 348.456,240.498 350.5,240C 353.232,239.587 355.899,238.92 358.5,238C 352.82,238.056 347.154,238.556 341.5,239.5C 341.286,237.856 341.62,236.356 342.5,235C 346.326,234.168 349.826,232.668 353,230.5C 353.494,228.866 353.66,227.199 353.5,225.5C 353.5,224.5 353.5,223.5 353.5,222.5C 350.941,222.198 348.607,222.532 346.5,223.5C 345.624,223.631 344.957,223.298 344.5,222.5C 349.788,221.438 355.121,220.771 360.5,220.5C 360.5,219.167 360.5,217.833 360.5,216.5C 356.493,217.004 352.493,217.17 348.5,217C 348.043,216.586 347.709,216.086 347.5,215.5C 350.08,214.451 352.746,213.784 355.5,213.5C 355.48,211.857 356.147,210.524 357.5,209.5C 356.2,207.949 354.533,206.949 352.5,206.5C 351.438,204.766 351.438,203.099 352.5,201.5 Z"/></g>
<g><path style="opacity:1" fill="#f8e8eb" d="M 463.5,233.5 C 466.919,234.708 470.253,236.208 473.5,238C 473,238.5 472.5,239 472,239.5C 469.293,237.064 466.127,235.564 462.5,235C 463.056,234.617 463.389,234.117 463.5,233.5 Z"/></g>
<g><path style="opacity:1" fill="#faf7f8" d="M 427.5,220.5 C 433.79,220.491 439.79,221.658 445.5,224C 444.601,225.236 443.434,226.07 442,226.5C 437.537,225.053 433.037,223.553 428.5,222C 427.944,221.617 427.611,221.117 427.5,220.5 Z"/></g>
<g><path style="opacity:1" fill="#f9f1f2" d="M 446.5,221.5 C 447.097,220.861 447.93,220.528 449,220.5C 451.5,221 454,221.5 456.5,222C 455.737,222.944 454.737,223.444 453.5,223.5C 451.149,222.827 448.816,222.16 446.5,221.5 Z"/></g>
<g><path style="opacity:1" fill="#f9f4f5" d="M 427.5,220.5 C 421.546,218.941 415.546,217.441 409.5,216C 411.953,215.262 414.453,214.762 417,214.5C 420.709,215.017 424.209,216.017 427.5,217.5C 427.5,218.5 427.5,219.5 427.5,220.5 Z"/></g>
<g><path style="opacity:1" fill="#faf3f4" d="M 494.5,254.5 C 495.873,254.343 497.207,254.51 498.5,255C 500,257.833 502.167,260 505,261.5C 505.309,262.766 505.809,263.933 506.5,265C 511.268,265.934 514.268,268.768 515.5,273.5C 517.817,275.316 519.984,277.316 522,279.5C 522.749,280.635 522.583,281.635 521.5,282.5C 514.273,274.53 506.94,266.696 499.5,259C 496.691,258.688 495.024,257.188 494.5,254.5 Z"/></g>
<g><path style="opacity:1" fill="#f8edef" d="M 637.5,267.5 C 638.542,266.209 639.708,266.209 641,267.5C 642.597,271.269 644.43,274.936 646.5,278.5C 645.272,283.522 643.939,283.355 642.5,278C 643.517,276.951 643.684,275.784 643,274.5C 641.629,271.734 639.796,269.401 637.5,267.5 Z"/></g>
<g><path style="opacity:1" fill="#f9f3f5" d="M 524.5,286.5 C 524.897,285.475 525.563,285.308 526.5,286C 532.279,291.39 535.779,297.89 537,305.5C 534.241,300.332 530.741,295.665 526.5,291.5C 525.83,289.709 525.163,288.042 524.5,286.5 Z"/></g>
<g><path style="opacity:1" fill="#f9f0f2" d="M 648.5,290.5 C 650.148,292.429 651.815,294.429 653.5,296.5C 653.081,297.672 652.415,298.672 651.5,299.5C 649.506,296.85 648.506,293.85 648.5,290.5 Z"/></g>
<g><path style="opacity:1" fill="#faf4f6" d="M 616.5,347.5 C 617.117,347.611 617.617,347.944 618,348.5C 618.829,353.533 618.662,358.533 617.5,363.5C 616.505,358.208 616.172,352.875 616.5,347.5 Z"/></g>
<g><path style="opacity:1" fill="#eff5f8" d="M 218.5,366.5 C 220.093,367.348 221.26,368.681 222,370.5C 222.373,373.858 221.539,374.192 219.5,371.5C 218.548,369.955 218.215,368.288 218.5,366.5 Z"/></g>
<g><path style="opacity:1" fill="#eaf1f7" d="M 220.5,375.5 C 222.086,377.081 223.086,379.081 223.5,381.5C 223.023,382.478 222.357,383.311 221.5,384C 223.563,385.572 224.229,387.405 223.5,389.5C 221.739,387.747 220.406,385.747 219.5,383.5C 220.269,380.885 220.603,378.219 220.5,375.5 Z"/></g>
<g><path style="opacity:1" fill="#f9f0f2" d="M 663.5,364.5 C 664.043,364.56 664.376,364.893 664.5,365.5C 663.393,373.781 662.559,382.115 662,390.5C 661.581,391.672 660.915,392.672 660,393.5C 659.667,398.167 659.333,402.833 659,407.5C 657.149,411.004 655.816,414.67 655,418.5C 654.385,420.116 653.385,421.449 652,422.5C 655.362,411.773 657.862,400.94 659.5,390C 659.23,388.486 658.897,386.986 658.5,385.5C 660.647,380.462 661.314,375.296 660.5,370C 660.613,367.601 661.613,365.768 663.5,364.5 Z"/></g>
<g><path style="opacity:1" fill="#ecf2f8" d="M 229.5,403.5 C 231.558,405.927 233.391,408.593 235,411.5C 236.187,413.044 236.52,414.711 236,416.5C 232.201,412.902 230.034,408.569 229.5,403.5 Z"/></g>
<g><path style="opacity:1" fill="#ecf2f7" d="M 82.5,418.5 C 83.5659,417.308 84.3992,417.641 85,419.5C 86.0391,421.901 86.2058,424.234 85.5,426.5C 84.0827,423.908 83.0827,421.241 82.5,418.5 Z"/></g>
<g><path style="opacity:1" fill="#ecf3f9" d="M 244.5,427.5 C 246.149,428.714 247.815,430.047 249.5,431.5C 250.833,432.5 250.833,433.5 249.5,434.5C 247.427,432.432 245.761,430.099 244.5,427.5 Z"/></g>
<g><path style="opacity:1" fill="#f9f1f3" d="M 643.5,450.5 C 644.376,450.369 645.043,450.702 645.5,451.5C 641.596,457.71 638.763,464.377 637,471.5C 634.091,475.487 631.091,479.487 628,483.5C 627.282,484.451 626.449,484.617 625.5,484C 625.784,480.38 627.617,477.88 631,476.5C 631.478,470.513 633.978,465.513 638.5,461.5C 640.646,458.03 642.312,454.364 643.5,450.5 Z"/></g>
<g><path style="opacity:1" fill="#ebf2f7" d="M 111.5,480.5 C 113.148,481.81 114.814,483.143 116.5,484.5C 117.59,485.609 117.59,486.609 116.5,487.5C 114.09,485.674 112.423,483.34 111.5,480.5 Z"/></g>
<g><path style="opacity:1" fill="#f9f6f6" d="M 435.5,495.5 C 436.5,495.5 437.5,495.5 438.5,495.5C 438.579,496.93 438.246,498.264 437.5,499.5C 435.302,500.738 433.135,502.072 431,503.5C 429.743,503.15 429.409,502.483 430,501.5C 432.04,499.63 433.873,497.63 435.5,495.5 Z"/></g>
<g><path style="opacity:1" fill="#f7fafb" d="M 177.5,498.5 C 178.251,497.427 179.251,497.26 180.5,498C 183.167,500.667 185.833,503.333 188.5,506C 187.833,506.667 187.167,506.667 186.5,506C 183.919,502.912 180.919,500.412 177.5,498.5 Z"/></g>
<g><path style="opacity:1" fill="#6daed6" d="M 279.5,505.5 C 279.735,504.903 280.235,504.57 281,504.5C 284.145,505.411 287.312,506.245 290.5,507C 290.957,507.414 291.291,507.914 291.5,508.5C 290.508,508.354 289.342,508.687 288,509.5C 285.26,507.916 282.427,506.583 279.5,505.5 Z"/></g>
<g><path style="opacity:1" fill="#f6cc62" d="M 312.5,533.5 C 316.761,534.051 320.928,534.051 325,533.5C 325.617,534.449 325.451,535.282 324.5,536C 322.744,536.202 321.078,536.702 319.5,537.5C 321.688,540.899 324.521,543.565 328,545.5C 328.483,546.448 328.649,547.448 328.5,548.5C 331.572,548.183 334.572,548.516 337.5,549.5C 337.291,550.086 336.957,550.586 336.5,551C 331.132,551.478 325.799,551.145 320.5,550C 320.106,546.356 318.106,544.523 314.5,544.5C 311.749,544.854 309.083,545.521 306.5,546.5C 305.079,543.991 303.412,541.657 301.5,539.5C 306.429,539.632 310.096,537.632 312.5,533.5 Z"/></g>
<g><path style="opacity:1" fill="#f6cf66" d="M 386.5,589.5 C 373.837,590.353 361.17,590.02 348.5,588.5C 337.695,592.436 338.029,595.603 349.5,598C 350.167,599 350.833,600 351.5,601C 353.941,601.036 355.941,601.869 357.5,603.5C 361.516,604.77 365.516,604.77 369.5,603.5C 371.524,605.358 373.691,607.025 376,608.5C 376.312,611.309 375.812,613.976 374.5,616.5C 379.821,617.021 384.821,616.021 389.5,613.5C 390.711,614.274 390.711,615.107 389.5,616C 404.995,615.902 420.495,615.402 436,614.5C 437.707,614.508 439.207,614.842 440.5,615.5C 437.444,616.616 434.444,618.116 431.5,620C 430.663,621.011 430.33,622.178 430.5,623.5C 428.208,623.244 426.041,623.577 424,624.5C 422.836,627.567 423.836,629.233 427,629.5C 432.781,628.302 438.614,627.469 444.5,627C 445.966,626.365 447.3,625.531 448.5,624.5C 450.834,625.841 452.501,625.174 453.5,622.5C 467.783,615.771 482.45,610.271 497.5,606C 485.117,612.524 472.45,618.524 459.5,624C 458.112,624.889 458.278,625.389 460,625.5C 476.71,619.986 493.21,613.986 509.5,607.5C 507.384,609.729 505.051,611.729 502.5,613.5C 495.468,617.68 488.468,621.847 481.5,626C 473.24,629.418 464.907,632.418 456.5,635C 454.5,636.333 452.5,637.667 450.5,639C 434.501,643.701 417.501,647.701 399.5,651C 371.361,651.966 343.694,648.799 316.5,641.5C 316.5,640.5 316.5,639.5 316.5,638.5C 306.175,639.66 297.175,636.827 289.5,630C 284.39,627.945 279.39,625.612 274.5,623C 271.055,619.237 268.055,615.237 265.5,611C 262.252,610.918 259.919,609.418 258.5,606.5C 257.675,605.614 256.675,605.281 255.5,605.5C 255.5,604.5 255.5,603.5 255.5,602.5C 258.859,604.154 260.859,603.154 261.5,599.5C 260.167,599.5 258.833,599.5 257.5,599.5C 257.047,598.542 256.381,597.708 255.5,597C 256,596.833 256.5,596.667 257,596.5C 262.18,597.81 267.346,597.81 272.5,596.5C 272.833,596 273.167,595.5 273.5,595C 271.818,593.105 271.318,590.938 272,588.5C 274.957,585.509 277.957,582.509 281,579.5C 281.778,576.725 281.278,574.225 279.5,572C 281.168,566.831 283.502,561.997 286.5,557.5C 286.023,556.522 285.357,555.689 284.5,555C 280.816,553.896 277.15,552.73 273.5,551.5C 272.287,551.253 271.62,550.586 271.5,549.5C 274.62,549.156 277.453,549.823 280,551.5C 281.584,551.012 282.751,550.012 283.5,548.5C 285.321,550.243 287.321,551.743 289.5,553C 294.534,553.736 299.367,553.236 304,551.5C 308.319,553.041 312.819,554.208 317.5,555C 321.05,557.941 324.384,561.108 327.5,564.5C 327,564.833 326.5,565.167 326,565.5C 322.968,565.233 320.301,564.233 318,562.5C 316.175,563.103 314.341,563.77 312.5,564.5C 320.407,567.728 328.74,569.895 337.5,571C 338.5,571.833 339.5,572.667 340.5,573.5C 336.924,574.422 333.424,574.089 330,572.5C 329.833,572.833 329.667,573.167 329.5,573.5C 330.714,575.069 332.381,575.902 334.5,576C 335.337,577.011 335.67,578.178 335.5,579.5C 352.11,585.422 369.11,588.756 386.5,589.5 Z"/></g>
<g><path style="opacity:1" fill="#fcf6dd" d="M 257.5,599.5 C 258.833,599.5 260.167,599.5 261.5,599.5C 260.859,603.154 258.859,604.154 255.5,602.5C 255.427,600.973 256.094,599.973 257.5,599.5 Z"/></g>
<g><path style="opacity:1" fill="#f6c36a" d="M 525.5,597.5 C 521.107,602.105 515.773,605.439 509.5,607.5C 514.489,603.669 519.822,600.336 525.5,597.5 Z"/></g>
<g><path style="opacity:1" fill="#faf4e1" d="M 275.5,613.5 C 278.462,613.117 279.462,614.117 278.5,616.5C 276.787,616.121 275.787,615.121 275.5,613.5 Z"/></g>
<g><path style="opacity:1" fill="#f5d267" d="M 440.5,615.5 C 442.137,614.782 443.803,614.616 445.5,615C 443.852,616.677 442.185,616.844 440.5,615.5 Z"/></g>
</svg>
