<svg version="1.1" id="Layer_1" xmlns="http://www.w3.org/2000/svg" xmlns:xlink="http://www.w3.org/1999/xlink" x="0px" y="0px"
	 width="100%" viewBox="0 0 167 167" enable-background="new 0 0 167 167" xml:space="preserve">
<path fill="#FAFAFA" opacity="1.000000" stroke="none" 
	d="
M88.000000,168.000000 
	C58.666672,168.000000 29.833340,168.000000 1.000008,168.000000 
	C1.000005,112.333344 1.000005,56.666687 1.000003,1.000023 
	C56.666653,1.000015 112.333305,1.000015 167.999969,1.000008 
	C167.999969,56.666641 167.999969,112.333282 167.999985,167.999969 
	C141.500000,168.000000 115.000000,168.000000 88.000000,168.000000 
M74.311401,40.925205 
	C73.879364,41.004299 73.447327,41.083389 72.255928,41.122139 
	C69.794914,42.049507 67.333908,42.976879 64.135727,43.939583 
	C60.302345,46.176121 56.203484,48.059357 52.679367,50.707458 
	C32.277493,66.037918 29.221697,101.014206 58.743809,117.023705 
	C60.178703,117.801834 61.790474,118.485771 63.387333,118.692459 
	C69.743828,119.515213 76.116928,120.276474 82.507469,120.722969 
	C84.128998,120.836258 85.910889,119.849831 87.467194,119.066795 
	C88.028267,118.784492 87.986618,117.484138 88.495056,116.879745 
	C89.539597,115.638084 90.769714,114.552528 91.923126,113.403885 
	C81.328712,114.090683 71.639389,111.473312 62.783928,105.595665 
	C53.634567,99.522934 46.251953,86.069740 53.280785,71.902679 
	C58.637829,61.105209 67.142220,54.785732 79.785133,52.756588 
	C95.153938,48.998909 112.123672,59.126335 117.284004,75.115501 
	C123.327148,93.840034 109.918449,111.622856 95.519051,116.805214 
	C96.071617,118.717003 96.626221,120.635834 97.158585,122.477730 
	C95.700005,123.106712 94.038010,123.823418 92.376007,124.540131 
	C93.392090,125.704163 94.139198,125.900291 94.893845,125.935646 
	C106.628578,126.485352 115.503830,120.318832 122.542290,112.245827 
	C140.099075,92.108459 135.200211,63.142540 111.984482,49.816338 
	C105.289574,45.973351 97.329353,44.152363 89.760941,42.098034 
	C86.469284,41.204563 82.702309,42.062164 78.934868,41.456749 
	C77.613632,41.273018 76.292397,41.089291 74.311401,40.925205 
M113.687439,146.800049 
	C115.478882,146.018524 117.395622,145.440018 119.042267,144.423859 
	C134.444611,134.918854 147.644943,123.363159 154.883179,106.155518 
	C159.577454,94.995659 161.660034,83.473495 159.201935,71.570305 
	C155.819595,55.191380 145.974152,43.208172 132.220474,34.196182 
	C124.912224,29.407509 116.957565,26.504023 108.046898,25.779909 
	C106.909332,29.435539 105.903152,32.668961 105.191757,34.955070 
	C112.233704,38.755341 119.212250,41.655449 125.219383,45.922955 
	C144.485245,59.609539 151.011337,85.807816 138.672424,107.195885 
	C126.746391,127.868271 109.148987,140.225906 83.468262,138.581772 
	C76.639244,138.188278 73.707161,132.616272 70.385262,128.926895 
	C67.370216,129.368835 64.871475,129.735092 61.601124,130.016357 
	C57.983627,128.345444 54.218910,126.931740 50.773670,124.959854 
	C34.311993,115.537994 25.011889,101.339317 25.112570,82.298927 
	C25.208563,64.145416 34.294998,49.843204 48.096970,38.774174 
	C53.264851,34.629593 59.532185,30.511339 65.825485,29.419157 
	C76.131004,27.630671 86.871544,28.000513 97.420700,28.125687 
	C102.012199,28.180170 104.534760,26.876932 105.703079,22.227604 
	C104.073883,21.241957 102.497307,20.288151 100.920738,19.334343 
	C100.997337,19.127527 101.073929,18.920712 101.150528,18.713894 
	C103.600731,19.245449 106.050941,19.777004 109.008881,20.418709 
	C106.763359,15.136457 102.018631,13.972223 97.773964,13.215078 
	C80.942604,10.212778 65.003555,12.679091 49.327473,20.110205 
	C25.216194,31.539951 7.333144,60.065853 9.794172,86.713364 
	C11.425915,104.381538 18.337627,118.592918 32.139244,129.461273 
	C39.305443,135.104416 46.530933,140.828171 56.166534,142.809784 
	C58.776157,145.028854 61.065796,147.905075 64.048698,149.357559 
	C80.263290,157.253098 96.455521,156.336472 112.401657,148.314804 
	C112.762321,148.133377 112.884773,147.478409 113.687439,146.800049 
z"/>
<path fill="#83BBDE" opacity="1.000000" stroke="none" 
	d="
M56.030704,142.171814 
	C46.530933,140.828171 39.305443,135.104416 32.139244,129.461273 
	C18.337627,118.592918 11.425915,104.381538 9.794172,86.713364 
	C7.333144,60.065853 25.216194,31.539951 49.327473,20.110205 
	C65.003555,12.679091 80.942604,10.212778 97.773964,13.215078 
	C102.018631,13.972223 106.763359,15.136457 109.008881,20.418709 
	C106.050941,19.777004 103.600731,19.245449 101.150528,18.713894 
	C101.073929,18.920712 100.997337,19.127527 100.920738,19.334343 
	C102.497307,20.288151 104.073883,21.241957 105.703079,22.227604 
	C104.534760,26.876932 102.012199,28.180170 97.420700,28.125687 
	C86.871544,28.000513 76.131004,27.630671 65.825485,29.419157 
	C59.532185,30.511339 53.264851,34.629593 48.096970,38.774174 
	C34.294998,49.843204 25.208563,64.145416 25.112570,82.298927 
	C25.011889,101.339317 34.311993,115.537994 50.773670,124.959854 
	C54.218910,126.931740 57.983627,128.345444 62.119003,130.375336 
	C62.679218,135.843170 61.309666,140.136505 56.030704,142.171814 
z"/>
<path fill="#EEA4B1" opacity="1.000000" stroke="none" 
	d="
M84.064667,139.012680 
	C109.148987,140.225906 126.746391,127.868271 138.672424,107.195885 
	C151.011337,85.807816 144.485245,59.609539 125.219383,45.922955 
	C119.212250,41.655449 112.233704,38.755341 105.191757,34.955070 
	C105.903152,32.668961 106.909332,29.435539 108.046898,25.779909 
	C116.957565,26.504023 124.912224,29.407509 132.220474,34.196182 
	C145.974152,43.208172 155.819595,55.191380 159.201935,71.570305 
	C161.660034,83.473495 159.577454,94.995659 154.883179,106.155518 
	C147.644943,123.363159 134.444611,134.918854 119.042267,144.423859 
	C117.395622,145.440018 115.478882,146.018524 113.049728,146.753296 
	C107.898712,147.400406 103.385414,148.094254 98.841064,148.792862 
	C98.961884,147.824829 99.068474,146.970825 99.236382,145.625549 
	C91.053810,147.233337 84.328552,145.041534 78.696991,139.012680 
	C80.486214,139.012680 82.275444,139.012680 84.064667,139.012680 
z"/>
<path fill="#EEA4B2" opacity="1.000000" stroke="none" 
	d="
M79.151215,42.124474 
	C82.702309,42.062164 86.469284,41.204563 89.760941,42.098034 
	C97.329353,44.152363 105.289574,45.973351 111.984482,49.816338 
	C135.200211,63.142540 140.099075,92.108459 122.542290,112.245827 
	C115.503830,120.318832 106.628578,126.485352 94.893845,125.935646 
	C94.139198,125.900291 93.392090,125.704163 92.376007,124.540131 
	C94.038010,123.823418 95.700005,123.106712 97.158585,122.477730 
	C96.626221,120.635834 96.071617,118.717003 95.519051,116.805214 
	C109.918449,111.622856 123.327148,93.840034 117.284004,75.115501 
	C112.123672,59.126335 95.153938,48.998909 79.250656,52.507355 
	C79.026756,50.720398 78.810104,48.582409 79.747871,47.758755 
	C82.441757,45.392673 80.132370,44.420368 78.983856,42.810081 
	C79.045967,42.583134 79.151215,42.124474 79.151215,42.124474 
M98.595016,117.528954 
	C98.595016,117.528954 98.450493,117.602066 98.595016,117.528954 
z"/>
<path fill="#84BBDE" opacity="1.000000" stroke="none" 
	d="
M78.921753,43.037029 
	C80.132370,44.420368 82.441757,45.392673 79.747871,47.758755 
	C78.810104,48.582409 79.026756,50.720398 78.837662,52.525486 
	C67.142220,54.785732 58.637829,61.105209 53.280785,71.902679 
	C46.251953,86.069740 53.634567,99.522934 62.783928,105.595665 
	C71.639389,111.473312 81.328712,114.090683 91.923286,113.403305 
	C90.769714,114.552528 89.539597,115.638084 88.495056,116.879745 
	C87.986618,117.484138 88.028267,118.784492 87.467194,119.066795 
	C85.910889,119.849831 84.128998,120.836258 82.507469,120.722969 
	C76.116928,120.276474 69.743828,119.515213 63.387333,118.692459 
	C61.790474,118.485771 60.178703,117.801834 58.743809,117.023705 
	C29.221697,101.014206 32.277493,66.037918 52.679367,50.707458 
	C56.203484,48.059357 60.302345,46.176121 64.797745,44.125675 
	C68.640045,44.208046 71.820328,44.104328 75.345245,43.998489 
	C76.767166,43.676586 77.844460,43.356808 78.921753,43.037029 
z"/>
<path fill="#F6D06C" opacity="1.000000" stroke="none" 
	d="
M83.766464,138.797226 
	C82.275444,139.012680 80.486214,139.012680 78.696991,139.012680 
	C84.328552,145.041534 91.053810,147.233337 99.236382,145.625549 
	C99.068474,146.970825 98.961884,147.824829 98.841064,148.792862 
	C103.385414,148.094254 107.898712,147.400406 112.765182,146.875443 
	C112.884773,147.478409 112.762321,148.133377 112.401657,148.314804 
	C96.455521,156.336472 80.263290,157.253098 64.048698,149.357559 
	C61.065796,147.905075 58.776157,145.028854 56.098618,142.490799 
	C61.309666,140.136505 62.679218,135.843170 62.504807,130.417847 
	C64.871475,129.735092 67.370216,129.368835 70.385262,128.926895 
	C73.707161,132.616272 76.639244,138.188278 83.766464,138.797226 
z"/>
<path fill="#8DC0E0" opacity="1.000000" stroke="none" 
	d="
M75.000610,44.000610 
	C71.820328,44.104328 68.640045,44.208046 65.166328,44.108009 
	C67.333908,42.976879 69.794914,42.049507 72.636108,41.480331 
	C73.677322,42.558811 74.338356,43.279099 74.999695,43.999695 
	C75.000000,44.000000 75.000610,44.000610 75.000610,44.000610 
z"/>
<path fill="#8DC0E0" opacity="1.000000" stroke="none" 
	d="
M78.983856,42.810081 
	C77.844460,43.356808 76.767166,43.676586 75.345245,43.998489 
	C75.000610,44.000610 75.000000,44.000000 75.001205,43.613243 
	C74.992004,42.452843 74.981583,41.679199 74.971161,40.905560 
	C76.292397,41.089291 77.613632,41.273018 79.043045,41.790611 
	C79.151215,42.124474 79.045967,42.583134 78.983856,42.810081 
z"/>
<path fill="#84BBDE" opacity="1.000000" stroke="none" 
	d="
M74.641281,40.915382 
	C74.981583,41.679199 74.992004,42.452843 75.000900,43.612938 
	C74.338356,43.279099 73.677322,42.558811 73.015793,41.500504 
	C73.447327,41.083389 73.879364,41.004299 74.641281,40.915382 
z"/>
<path fill="#FAFAFA" opacity="1.000000" stroke="none" 
	d="
M98.522751,117.565506 
	C98.450493,117.602066 98.595016,117.528954 98.522751,117.565506 
z"/>
</svg>